<mxfile host="Electron" agent="Mozilla/5.0 (Windows NT 10.0; Win64; x64) AppleWebKit/537.36 (KHTML, like Gecko) draw.io/28.1.2 Chrome/138.0.7204.243 Electron/37.4.0 Safari/537.36" version="28.1.2">
  <diagram name="PÃ¡gina-1" id="dMCbXGOv-PTpZ21MoD36">
    <mxGraphModel dx="1613" dy="1685" grid="1" gridSize="10" guides="1" tooltips="1" connect="1" arrows="1" fold="1" page="1" pageScale="1" pageWidth="827" pageHeight="1169" background="none" math="0" shadow="1">
      <root>
        <mxCell id="0" />
        <mxCell id="1" parent="0" />
        <mxCell id="W3bmt65efqRel0_UCa2H-3" style="edgeStyle=orthogonalEdgeStyle;rounded=0;orthogonalLoop=1;jettySize=auto;html=1;exitX=0.55;exitY=0.95;exitDx=0;exitDy=0;exitPerimeter=0;" parent="1" source="W3bmt65efqRel0_UCa2H-2" edge="1">
          <mxGeometry relative="1" as="geometry">
            <mxPoint x="349.66666666666697" y="470" as="targetPoint" />
          </mxGeometry>
        </mxCell>
        <mxCell id="W3bmt65efqRel0_UCa2H-2" value="" style="ellipse;shape=cloud;whiteSpace=wrap;html=1;shadow=0;gradientColor=none;sketch=1;curveFitting=1;jiggle=2;" parent="1" vertex="1">
          <mxGeometry x="-140" y="-160" width="960" height="670" as="geometry" />
        </mxCell>
        <mxCell id="WMn-ziCg5PA7j3gu6akF-15" value="AWS" style="ellipse;shape=cloud;whiteSpace=wrap;html=1;" parent="1" vertex="1">
          <mxGeometry y="45" width="160" height="105" as="geometry" />
        </mxCell>
        <mxCell id="WMn-ziCg5PA7j3gu6akF-1" value="D-EBS" style="outlineConnect=0;dashed=0;verticalLabelPosition=bottom;verticalAlign=top;align=center;html=1;shape=mxgraph.aws3.volume;fillColor=#E05243;gradientColor=none;shadow=0;fillOpacity=100;portConstraintRotation=0;fixDash=1;movable=1;movableLabel=1;" parent="1" vertex="1">
          <mxGeometry x="70" y="170" width="50" height="75" as="geometry" />
        </mxCell>
        <mxCell id="WMn-ziCg5PA7j3gu6akF-8" style="edgeStyle=orthogonalEdgeStyle;rounded=0;orthogonalLoop=1;jettySize=auto;html=1;exitX=0.5;exitY=0.5;exitDx=0;exitDy=0;exitPerimeter=0;" parent="1" edge="1">
          <mxGeometry relative="1" as="geometry">
            <mxPoint x="80" y="454.5" as="targetPoint" />
            <mxPoint x="145" y="584.5" as="sourcePoint" />
          </mxGeometry>
        </mxCell>
        <mxCell id="WMn-ziCg5PA7j3gu6akF-3" value="Actor" style="shape=umlActor;verticalLabelPosition=bottom;verticalAlign=top;html=1;outlineConnect=0;" parent="1" vertex="1">
          <mxGeometry x="150" y="525" width="30" height="60" as="geometry" />
        </mxCell>
        <mxCell id="WMn-ziCg5PA7j3gu6akF-12" style="edgeStyle=orthogonalEdgeStyle;rounded=0;orthogonalLoop=1;jettySize=auto;html=1;flowAnimation=1;" parent="1" source="WMn-ziCg5PA7j3gu6akF-11" target="WMn-ziCg5PA7j3gu6akF-1" edge="1">
          <mxGeometry relative="1" as="geometry">
            <mxPoint x="146" y="190" as="targetPoint" />
            <Array as="points">
              <mxPoint x="90" y="210" />
            </Array>
          </mxGeometry>
        </mxCell>
        <mxCell id="WMn-ziCg5PA7j3gu6akF-14" value="envia arquivo" style="edgeLabel;html=1;align=center;verticalAlign=middle;resizable=0;points=[];" parent="WMn-ziCg5PA7j3gu6akF-12" vertex="1" connectable="0">
          <mxGeometry x="-0.506" y="3" relative="1" as="geometry">
            <mxPoint as="offset" />
          </mxGeometry>
        </mxCell>
        <mxCell id="WMn-ziCg5PA7j3gu6akF-11" value="" style="verticalLabelPosition=bottom;aspect=fixed;html=1;shape=mxgraph.salesforce.web;fillColorStyles=fillColor2,fillColor3,fillColor4;fillColor2=#032d60;fillColor3=#0d9dda;fillColor4=#ffffff;fillColor=none;strokeColor=none;" parent="1" vertex="1">
          <mxGeometry x="50" y="400" width="80.63" height="63.7" as="geometry" />
        </mxCell>
        <mxCell id="WMn-ziCg5PA7j3gu6akF-22" value="" style="edgeStyle=orthogonalEdgeStyle;rounded=0;orthogonalLoop=1;jettySize=auto;html=1;flowAnimation=1;" parent="1" source="WMn-ziCg5PA7j3gu6akF-18" target="WMn-ziCg5PA7j3gu6akF-21" edge="1">
          <mxGeometry relative="1" as="geometry" />
        </mxCell>
        <mxCell id="WMn-ziCg5PA7j3gu6akF-23" style="edgeStyle=orthogonalEdgeStyle;rounded=0;orthogonalLoop=1;jettySize=auto;html=1;flowAnimation=1;" parent="1" source="WMn-ziCg5PA7j3gu6akF-18" target="WMn-ziCg5PA7j3gu6akF-1" edge="1">
          <mxGeometry relative="1" as="geometry">
            <Array as="points">
              <mxPoint x="230" y="208" />
              <mxPoint x="230" y="198" />
            </Array>
          </mxGeometry>
        </mxCell>
        <mxCell id="WMn-ziCg5PA7j3gu6akF-25" value="RCS" style="edgeStyle=orthogonalEdgeStyle;rounded=0;orthogonalLoop=1;jettySize=auto;html=1;flowAnimation=1;" parent="1" source="WMn-ziCg5PA7j3gu6akF-18" target="WMn-ziCg5PA7j3gu6akF-24" edge="1">
          <mxGeometry relative="1" as="geometry">
            <mxPoint x="430" y="20" as="targetPoint" />
          </mxGeometry>
        </mxCell>
        <mxCell id="WMn-ziCg5PA7j3gu6akF-18" value="EC2" style="verticalLabelPosition=bottom;html=1;verticalAlign=top;strokeWidth=1;align=center;outlineConnect=0;dashed=0;outlineConnect=0;shape=mxgraph.aws3d.application_server;fillColor=#ECECEC;strokeColor=#5E5E5E;aspect=fixed;strokeColor2=#292929;shadow=0;fillOpacity=100;portConstraintRotation=0;fixDash=1;movable=1;movableLabel=1;" parent="1" vertex="1">
          <mxGeometry x="230" y="130" width="128.96" height="130" as="geometry" />
        </mxCell>
        <mxCell id="WMn-ziCg5PA7j3gu6akF-21" value="E-EBS&lt;div&gt;&lt;br&gt;&lt;/div&gt;" style="outlineConnect=0;dashed=0;verticalLabelPosition=bottom;verticalAlign=top;align=center;html=1;shape=mxgraph.aws3.volume;fillColor=#E05243;gradientColor=none;shadow=0;fillOpacity=100;portConstraintRotation=0;fixDash=1;movable=1;movableLabel=1;" parent="1" vertex="1">
          <mxGeometry x="490" y="157.5" width="52.5" height="75" as="geometry" />
        </mxCell>
        <mxCell id="WMn-ziCg5PA7j3gu6akF-24" value="" style="outlineConnect=0;dashed=0;verticalLabelPosition=bottom;verticalAlign=top;align=center;html=1;shape=mxgraph.aws3.rds;fillColor=#2E73B8;gradientColor=none;" parent="1" vertex="1">
          <mxGeometry x="301.48" y="-50" width="66" height="81" as="geometry" />
        </mxCell>
      </root>
    </mxGraphModel>
  </diagram>
</mxfile>
